<?xml version="1.0" encoding="UTF-8" standalone="no"?>
<svg
   version="1.0"
   width="800.000000pt"
   height="800.000000pt"
   viewBox="0 0 800.000000 800.000000"
   preserveAspectRatio="xMidYMid meet"
   id="svg1067"
   sodipodi:docname="ethernet.svg"
   inkscape:version="1.1 (c68e22c387, 2021-05-23)"
   xmlns:inkscape="http://www.inkscape.org/namespaces/inkscape"
   xmlns:sodipodi="http://sodipodi.sourceforge.net/DTD/sodipodi-0.dtd"
   xmlns="http://www.w3.org/2000/svg"
   xmlns:svg="http://www.w3.org/2000/svg">
  <defs
     id="defs1071" />
  <sodipodi:namedview
     id="namedview1069"
     pagecolor="#ffffff"
     bordercolor="#666666"
     borderopacity="1.0"
     inkscape:pageshadow="2"
     inkscape:pageopacity="0.0"
     inkscape:pagecheckerboard="0"
     inkscape:document-units="pt"
     showgrid="false"
     inkscape:zoom="0.76125"
     inkscape:cx="532.67652"
     inkscape:cy="533.99015"
     inkscape:window-width="1920"
     inkscape:window-height="1001"
     inkscape:window-x="-9"
     inkscape:window-y="-9"
     inkscape:window-maximized="1"
     inkscape:current-layer="svg1067" />
  <metadata
     id="metadata1061">
Created by potrace 1.13, written by Peter Selinger 2001-2015
</metadata>
  <g
     transform="translate(0.000000,800.000000) scale(0.100000,-0.100000)"
     fill="#000000"
     stroke="none"
     id="g1065"
     style="fill:#121212;fill-opacity:1">
    <path
       d="M2910 6080 l0 -1240 585 0 585 0 0 -325 0 -325 -1955 0 -1955 0 0 -165 0 -165 850 0 850 0 -2 -347 -3 -348 -627 -3 -628 -2 0 -1240 0 -1240 1418 2 1417 3 3 1238 2 1237 -565 0 -565 0 0 350 0 350 2015 0 2015 0 0 -330 0 -330 -640 0 -640 0 0 -1245 0 -1245 1420 0 1420 0 -2 1243 -3 1242 -552 3 -553 2 0 330 0 330 515 0 515 0 0 165 0 165 -1650 0 -1650 0 2 323 3 322 608 3 607 2 -2 1238 -3 1237 -1417 3 -1418 2 0 -1240z m2390 -5 l0 -795 -975 0 -975 0 0 795 0 795 975 0 975 0 0 -795z m2160 -4120 l0 -795 -975 0 -975 0 0 795 0 795 975 0 975 0 0 -795z m-4460 -30 l0 -795 -975 0 -975 0 0 795 0 795 975 0 975 0 0 -795z"
       id="path1063"
       style="fill:#121212;fill-opacity:1" />
  </g>
</svg>
