<?xml version="1.0" encoding="UTF-8" standalone="no"?>
<!-- Created with Inkscape (http://www.inkscape.org/) -->

<svg
   width="184.94951mm"
   height="173.78081mm"
   viewBox="0 0 184.94951 173.78081"
   version="1.1"
   id="svg5"
   inkscape:version="1.1 (c68e22c387, 2021-05-23)"
   sodipodi:docname="first-move.svg"
   xmlns:inkscape="http://www.inkscape.org/namespaces/inkscape"
   xmlns:sodipodi="http://sodipodi.sourceforge.net/DTD/sodipodi-0.dtd"
   xmlns="http://www.w3.org/2000/svg"
   xmlns:svg="http://www.w3.org/2000/svg">
  <sodipodi:namedview
     id="namedview7"
     pagecolor="#ffffff"
     bordercolor="#666666"
     borderopacity="1.0"
     inkscape:pageshadow="2"
     inkscape:pageopacity="0.0"
     inkscape:pagecheckerboard="0"
     inkscape:document-units="mm"
     showgrid="false"
     fit-margin-top="0"
     fit-margin-left="0"
     fit-margin-right="0"
     fit-margin-bottom="0"
     inkscape:zoom="0.25575084"
     inkscape:cx="134.89692"
     inkscape:cy="-385.14047"
     inkscape:window-width="1920"
     inkscape:window-height="1001"
     inkscape:window-x="-9"
     inkscape:window-y="-9"
     inkscape:window-maximized="1"
     inkscape:current-layer="layer1"
     showguides="true"
     inkscape:guide-bbox="true">
    <sodipodi:guide
       position="91.649841,97.843234"
       orientation="1,0"
       id="guide4410" />
    <sodipodi:guide
       position="173.50746,173.29968"
       orientation="0,-1"
       id="guide4412" />
  </sodipodi:namedview>
  <defs
     id="defs2" />
  <g
     inkscape:label="Layer 1"
     inkscape:groupmode="layer"
     id="layer1"
     transform="translate(63.672824,-36.274205)">
    <path
       id="rect2763-2-16-6-0"
       style="fill:#000000;fill-opacity:1;stroke:#000000;stroke-width:3.29966;stroke-linecap:square;stroke-linejoin:bevel;stroke-opacity:1"
       d="m 119.62685,198.40518 h -10 v 10 h 10 z m -10,-10 h -10 v 10 h 10 z m -10,-10 h -10 v 10 h 10 z m -10,-10 h -10 v 10 h 10 z m -10,-10 h -10 v 10 h 10 z m -10,-9.99998 h -10 v 10 h 10 z m -10,-10.00003 h -10 v 10 h 10 z m -10,-10.00002 H 39.626846 v 10 H 49.62685 Z m -10.000004,-9.99999 h -10 v 10 h 10 z m 10.000004,0 H 39.626846 v 10 H 49.62685 Z m 0,-10.00002 H 39.626846 v 10 H 49.62685 Z m 10,20.00003 h -10 v 10 h 10 z m 0,-9.99999 h -10 v 10 h 10 z m 0,-10.00002 h -10 v 10 h 10 z m 0,-9.999978 h -10 v 9.999998 h 10 z m 10,39.999988 h -10 v 10 h 10 z m 0,-10 h -10 v 10 h 10 z m 0,-9.99999 h -10 v 10 h 10 z m 0,-10.00001 h -10 v 10 h 10 z m 0,-9.999988 h -10 v 9.999998 h 10 z m 0,-10 h -10 v 10 h 10 z m 10,59.999998 h -10 v 10 h 10 z m 0,-10.00003 h -10 v 10 h 10 z m 0,-10 h -10 v 10 h 10 z m 0,-9.99998 h -10 v 10 h 10 z m 0,-10.00001 h -10 v 10 h 10 z m 0,-9.999993 h -10 v 10.000003 h 10 z m 0,-10 h -10 v 10 h 10 z m 0,-10.000008 h -10 v 10 h 10 z m 10,80.000021 h -10 v 10 h 10 z m 0,-10 h -10 v 10 h 10 z m 0,-10.00003 h -10 v 10 h 10 z m 0,-10 h -10 v 10 h 10 z m 0,-9.99998 h -10 v 10 h 10 z m 0,-10 h -10 v 10 h 10 z m 0,-9.999996 h -10 v 9.999996 h 10 z m 0,-10 h -10 v 10 h 10 z m 0,-10.000007 h -10 v 10 h 10 z m 0,-10.000008 h -10 v 10 h 10 z m 10,100.000021 h -10 v 10 h 10 z m 0,-10 h -10 v 10 h 10 z m 0,-10 h -10 v 10 h 10 z m 0,-10.00003 h -10 v 10 h 10 z m 0,-10 h -10 v 10 h 10 z m 0,-9.99999 h -10 v 10 h 10 z m 0,-10 h -10 v 10 h 10 z m 0,-9.999986 h -10 v 9.999996 h 10 z m 0,-10 h -10 v 10 h 10 z m 0,-10.000007 h -10 v 10 h 10 z m 0,-10.000008 h -10 v 10 h 10 z m 0,-10 h -10 v 10 h 10 z m 10,120.000021 h -10 v 10 h 10 z m 0,-10 h -10 v 10 h 10 z m 0,-10 h -10 v 10 h 10 z m 0,-10 h -10 v 10 h 10 z m 0,-10.00003 h -10 v 10 h 10 z m 0,-10 h -10 v 10 h 10 z m 0,-9.99999 h -10 v 10 h 10 z m 0,-10 h -10 v 10 h 10 z m 0,-9.999986 h -10 v 9.999996 h 10 z m 0,-10 h -10 v 10 h 10 z m 0,-10 h -10 v 10 h 10 z m 0,-10.000007 h -10 v 10 h 10 z m 0,-10 h -10 v 10 h 10 z m 0,-10 h -10 v 10 h 10 z m 10,140.000013 h -10 v 10 h 10 z m 0,-10 h -10 v 10 h 10 z m 0,-10 h -10 v 10 h 10 z m 0,-10 h -10 v 10 h 10 z m 0,-10 h -10 v 10 h 10 z m 0,-10.00001 h -10 v 10 h 10 z m 0,-10 h -10 v 10 h 10 z m 0,-10 h -10 v 10 h 10 z m 0,-10 h -10 v 10 h 10 z m 0,-9.999996 h -10 v 9.999996 h 10 z m 0,-10 h -10 v 10 h 10 z m 0,-10 h -10 v 10 h 10 z m 0,-10 h -10 v 10 h 10 z m 0,-10 h -10 v 10 h 10 z m 0,-10 h -10 v 10 h 10 z m 0,-10 h -10 v 10 h 10 z" />
    <path
       id="rect2763-2-16-6-0-5"
       style="fill:#000000;fill-opacity:1;stroke:#000000;stroke-width:3.29966;stroke-linecap:square;stroke-linejoin:bevel;stroke-opacity:1"
       d="m 27.977016,197.92404 h -10 v 10 h 10 z m -10,-10 H 7.9770163 v 10 h 9.9999997 z m -9.9999997,-10 H -2.022984 v 10 H 7.9770163 Z m -10.0000003,-10 h -10 v 10 h 10 z m -10,-10 h -10 v 10 h 10 z m -10,-9.99998 h -10 v 10 h 10 z m -10,-10.00003 h -10 v 10 h 10 z m -10,-10.00002 h -10.00001 v 10 h 10.00001 z m -10.00001,-9.99999 h -10 v 10 h 10 z m 10.00001,0 h -10.00001 v 10 h 10.00001 z m 0,-10.00002 h -10.00001 v 10 h 10.00001 z m 10,20.00003 h -10 v 10 h 10 z m 0,-9.99999 h -10 v 10 h 10 z m 0,-10.00002 h -10 v 10 h 10 z m 0,-9.999985 h -10 v 10.000005 h 10 z m 10,39.999995 h -10 v 10 h 10 z m 0,-10 h -10 v 10 h 10 z m 0,-9.99999 h -10 v 10 h 10 z m 0,-10.00001 h -10 v 10 h 10 z m 0,-9.999995 h -10 v 10.000005 h 10 z m 0,-9.999996 h -10 v 9.999996 h 10 z m 10,60.000001 h -10 v 10 h 10 z m 0,-10.00003 h -10 v 10 h 10 z m 0,-10 h -10 v 10 h 10 z m 0,-9.99998 h -10 v 10 h 10 z m 0,-10.00001 h -10 v 10 h 10 z m 0,-9.999995 h -10 v 10.000005 h 10 z m 0,-9.999996 h -10 v 9.999996 h 10 z m 0,-10.000009 h -10 v 9.999999 h 10 z m 10,80.00002 h -10 v 10 h 10 z m 0,-10 h -10 v 10 h 10 z m 0,-10.00003 h -10 v 10 h 10 z m 0,-10 h -10 v 10 h 10 z m 0,-9.99998 h -10 v 10 h 10 z m 0,-10 h -10 v 10 h 10 z m 0,-9.999995 h -10 v 9.999995 h 10 z m 0,-9.999996 h -10 v 9.999996 h 10 z m 0,-10.000011 h -10 v 10.000001 h 10 z m 0,-10.000008 h -10 v 10 h 10 z M 7.9770163,167.92404 H -2.022984 v 10 H 7.9770163 Z m 0,-10 H -2.022984 v 10 H 7.9770163 Z m 0,-10 H -2.022984 v 10 H 7.9770163 Z m 0,-10.00003 H -2.022984 v 10 H 7.9770163 Z m 0,-10 H -2.022984 v 10 H 7.9770163 Z m 0,-9.99999 H -2.022984 v 10 H 7.9770163 Z m 0,-10 H -2.022984 v 10 H 7.9770163 Z m 0,-9.999985 H -2.022984 v 9.999995 H 7.9770163 Z m 0,-9.999996 H -2.022984 v 9.999996 H 7.9770163 Z m 0,-10.000011 H -2.022984 V 87.924029 H 7.9770163 Z m 0,-10.000008 H -2.022984 v 10 H 7.9770163 Z m 0,-10 H -2.022984 v 10 H 7.9770163 Z M 17.977016,177.92404 H 7.9770163 v 10 h 9.9999997 z m 0,-10 H 7.9770163 v 10 h 9.9999997 z m 0,-10 H 7.9770163 v 10 h 9.9999997 z m 0,-10 H 7.9770163 v 10 h 9.9999997 z m 0,-10.00003 H 7.9770163 v 10 h 9.9999997 z m 0,-10 H 7.9770163 v 10 h 9.9999997 z m 0,-9.99999 H 7.9770163 v 10 h 9.9999997 z m 0,-10 H 7.9770163 v 10 h 9.9999997 z m 0,-9.999985 H 7.9770163 v 9.999995 h 9.9999997 z m 0,-9.999996 H 7.9770163 v 9.999996 h 9.9999997 z m 0,-10.000004 H 7.9770163 v 10.000004 h 9.9999997 z m 0,-10.000007 H 7.9770163 v 10 h 9.9999997 z m 0,-10 H 7.9770163 v 10 h 9.9999997 z m 0,-10 H 7.9770163 v 10 h 9.9999997 z m 10,140.000012 h -10 v 10 h 10 z m 0,-10 h -10 v 10 h 10 z m 0,-10 h -10 v 10 h 10 z m 0,-10 h -10 v 10 h 10 z m 0,-10 h -10 v 10 h 10 z m 0,-10.00001 h -10 v 10 h 10 z m 0,-10 h -10 v 10 h 10 z m 0,-10 h -10 v 10 h 10 z m 0,-10 h -10 v 10 h 10 z m 0,-9.999995 h -10 v 9.999995 h 10 z m 0,-9.999996 h -10 v 9.999996 h 10 z m 0,-10.000004 h -10 v 10.000004 h 10 z m 0,-10 h -10 v 10 h 10 z m 0,-10 h -10 v 10 h 10 z m 0,-10 h -10 v 10 h 10 z m 0,-10 h -10 v 10 h 10 z" />
  </g>
</svg>
