<?xml version="1.0" encoding="UTF-8" standalone="no"?>
<!-- Created with Inkscape (http://www.inkscape.org/) -->

<svg
   width="110mm"
   height="110mm"
   viewBox="0 0 110 110"
   version="1.1"
   id="svg133672"
   inkscape:version="1.1 (c68e22c387, 2021-05-23)"
   sodipodi:docname="music-muted.svg"
   xmlns:inkscape="http://www.inkscape.org/namespaces/inkscape"
   xmlns:sodipodi="http://sodipodi.sourceforge.net/DTD/sodipodi-0.dtd"
   xmlns="http://www.w3.org/2000/svg"
   xmlns:svg="http://www.w3.org/2000/svg">
  <sodipodi:namedview
     id="namedview133674"
     pagecolor="#ffffff"
     bordercolor="#666666"
     borderopacity="1.0"
     inkscape:pageshadow="2"
     inkscape:pageopacity="0.0"
     inkscape:pagecheckerboard="0"
     inkscape:document-units="mm"
     showgrid="false"
     inkscape:zoom="1.0230034"
     inkscape:cx="126.58805"
     inkscape:cy="110.94783"
     inkscape:window-width="1920"
     inkscape:window-height="1001"
     inkscape:window-x="-9"
     inkscape:window-y="-9"
     inkscape:window-maximized="1"
     inkscape:current-layer="layer1" />
  <defs
     id="defs133669" />
  <g
     inkscape:label="Layer 1"
     inkscape:groupmode="layer"
     id="layer1"
     transform="translate(-30.724138,-150.5628)">
    <path
       id="rect134703-5-9-0-6-7-3"
       style="fill:#bea9de;stroke:#000000;stroke-width:0;stroke-linecap:square;stroke-linejoin:bevel;fill-opacity:1"
       transform="rotate(90)"
       d="m 240.56281,-60.724136 h 10 v 10 h -10 z m -10,0 h 10 v 10 h -10 z m 20,10 v 10 h -10 v -10 z m -10,0 v 10 h -10 v -10 z m 0,-20 h 10 v 10 h -10 z m -10,0 h 10 v 10 h -10 z m 10,-10 h 10 v 10 h -10 z m -10,0 h 10 v 10 h -10 z m 20,20 v -10 h 10 v 10 z m 0,10 v -10 h 10 v 10 z m -20,-30 h -10 v 10 h 10 z m 10,-39.999994 h 10 v -10 h -10 z m 10,-10.00001 h 10 v -10 h -10 z m -30,30.00001 h 10 v -10 h -10 z m -10,9.999994 h 10 v -10.000004 h -10 z m 20,-19.999994 h 10 v -10 h -10 z m -30,29.999994 h 10 v -10 h -10 z m -30,30 h 10 v -10 h -10 z m -10,9.999992 h 10 v -10 h -10 z m 20,-19.999992 h 10 v -10 h -10 z m -30,29.999992 h 10 v -10 h -10 z m 50.00001,-49.999992 h 10 v 10 h -10 z m -10.00001,0 h 10 v 10 h -10 z m 20,0 h 10 v 10 h -10 z m -40,-10 h 10 v 10 h -10 z m -10,0 h 10 v 10 h -10 z m 20,10 h 10 v 10 h -10 z m -10,0 h 10 v 10 h -10 z m 20,-50.000004 v 10 h 10 v -10 z m -10,10 v -10 h 10 v 10 z m 0,0 v 10 h 10 v -10 z m 40,60.000004 v -10 h 10 v 10 z m -50,-40.000004 v -10 h 10 v 10 z m 0,10.000004 v -10.000004 h 10 v 10.000004 z m 0,-20.000004 v -10 h 10 v 10 z m -20,40.000004 v -10 h 10 v 10 z m 10,0 v -10 h 10 v 10 z m 60,20 v -10 h 10 v 10 z" />
  </g>
</svg>
