<?xml version="1.0" encoding="UTF-8" standalone="no"?>
<!-- Created with Inkscape (http://www.inkscape.org/) -->

<svg
   width="70mm"
   height="80mm"
   viewBox="0 0 70.000001 80.000001"
   version="1.1"
   id="svg5"
   inkscape:version="1.1 (c68e22c387, 2021-05-23)"
   sodipodi:docname="o.svg"
   xmlns:inkscape="http://www.inkscape.org/namespaces/inkscape"
   xmlns:sodipodi="http://sodipodi.sourceforge.net/DTD/sodipodi-0.dtd"
   xmlns="http://www.w3.org/2000/svg"
   xmlns:svg="http://www.w3.org/2000/svg">
  <sodipodi:namedview
     id="namedview7"
     pagecolor="#ffffff"
     bordercolor="#666666"
     borderopacity="1.0"
     inkscape:pageshadow="2"
     inkscape:pageopacity="0.0"
     inkscape:pagecheckerboard="0"
     inkscape:document-units="mm"
     showgrid="false"
     fit-margin-top="0"
     fit-margin-left="0"
     fit-margin-right="0"
     fit-margin-bottom="0"
     inkscape:zoom="1.0230034"
     inkscape:cx="50.341966"
     inkscape:cy="217.49684"
     inkscape:window-width="1920"
     inkscape:window-height="1001"
     inkscape:window-x="-9"
     inkscape:window-y="-9"
     inkscape:window-maximized="1"
     inkscape:current-layer="layer1"
     showguides="true"
     inkscape:guide-bbox="true">
    <sodipodi:guide
       position="51.898676,29.666949"
       orientation="1,0"
       id="guide4410" />
    <sodipodi:guide
       position="133.75629,105.1234"
       orientation="0,-1"
       id="guide4412" />
  </sodipodi:namedview>
  <defs
     id="defs2" />
  <g
     inkscape:label="Layer 1"
     inkscape:groupmode="layer"
     id="layer1"
     transform="translate(23.921659,-61.878729)">
    <path
       id="rect4706-7-5-8-0-6-3"
       style="stroke:#000000;stroke-width:0;stroke-linecap:square;stroke-linejoin:bevel;fill:#e3e2c4;fill-opacity:1"
       d="m 36.078338,91.87873 h -10 v -10 h 10 z m -10,30 h 10 v -10 h -10 z m 0,-10 h 10 v -10 h -10 z m 0,-10 h 10 v -10 h -10 z m 10,-10.000004 h 10 V 81.87873 h -10 z m 10e-7,-9.999996 h 9.999999 v -10 h -9.999999 z m 9.999999,50 h -10 v -10 h 10 z m 0,-10 h -10 v -10 h 10 z m 0,-10 h -10 v -10 h 10 z m 0,-10 h -10 V 91.878726 h 10 z m -20,20 h 10 v 10 h -10 z m 1e-6,-50 h 10 v 10 h -10 z m -29.999998,20 h -10 v -9.999999 h 10 z m -10,30 h 10 v -10 h -10 z m 0,-10 h 10 v -10 h -10 z m 0,-10 h 10 v -10 h -10 z m 0,-10 h -10 v -10 h 10 z m -10e-7,-10 h -9.999999 v -10 h 9.999999 z m -9.999999,50 h 10 v -10 h -10 z m 0,-10 h 10 v -10 h -10 z m 0,-10 h 10 v -10 h -10 z m 0,-10 h 10 v -10 h -10 z m 20.0000001,30 h 10 v 10 h -10 z m -9.9999991,0 h 9.9999991 v 10 h -9.9999991 z m 49.999999,0 h -10 v 10 h 10 z m -10,0 h -10 v 10 h 10 z m -10,0 H 6.0783411 v 10 h 9.9999999 z m -20.0000017,-70 h 10 v 10 h -10 z m -9.9999993,0 h 9.9999993 v 10 H -13.92166 Z m 10.0000011,60 H -13.921659 v 10 h 10.0000001 z m -1.1e-6,-50 h -10 v 10 h 10 z m 39.999999,-10 h -10 v 10 h 10 z m -10,0 h -10 v 10 h 10 z m -10,0 H 6.0783393 v 10 h 9.9999997 z" />
  </g>
</svg>
