<?xml version="1.0" encoding="UTF-8" standalone="no"?>
<!-- Created with Inkscape (http://www.inkscape.org/) -->

<svg
   width="93.299667mm"
   height="173.29967mm"
   viewBox="0 0 93.299667 173.29967"
   version="1.1"
   id="svg5"
   inkscape:version="1.1 (c68e22c387, 2021-05-23)"
   sodipodi:docname="prev.svg"
   xmlns:inkscape="http://www.inkscape.org/namespaces/inkscape"
   xmlns:sodipodi="http://sodipodi.sourceforge.net/DTD/sodipodi-0.dtd"
   xmlns="http://www.w3.org/2000/svg"
   xmlns:svg="http://www.w3.org/2000/svg">
  <sodipodi:namedview
     id="namedview7"
     pagecolor="#ffffff"
     bordercolor="#666666"
     borderopacity="1.0"
     inkscape:pageshadow="2"
     inkscape:pageopacity="0.0"
     inkscape:pagecheckerboard="0"
     inkscape:document-units="mm"
     showgrid="false"
     fit-margin-top="0"
     fit-margin-left="0"
     fit-margin-right="0"
     fit-margin-bottom="0"
     inkscape:zoom="0.72337262"
     inkscape:cx="-127.87324"
     inkscape:cy="297.91009"
     inkscape:window-width="1920"
     inkscape:window-height="1001"
     inkscape:window-x="-9"
     inkscape:window-y="-9"
     inkscape:window-maximized="1"
     inkscape:current-layer="layer1" />
  <defs
     id="defs2" />
  <g
     inkscape:label="Layer 1"
     inkscape:groupmode="layer"
     id="layer1"
     transform="translate(-27.977016,-36.755344)">
    <path
       id="rect2763-2-16-6-0"
       style="fill:#000000;fill-opacity:1;stroke:#000000;stroke-width:3.29966;stroke-linecap:square;stroke-linejoin:bevel;stroke-opacity:1"
       d="m 119.62685,198.40518 h -10 v 10 h 10 z m -10,-10 h -10 v 10 h 10 z m -10,-10 h -10 v 10 h 10 z m -10,-10 h -10 v 10 h 10 z m -10,-10 h -10 v 10 h 10 z m -10,-9.99998 h -10 v 10 h 10 z m -10,-10.00003 h -10 v 10 h 10 z m -10,-10.00002 H 39.626846 v 10 H 49.62685 Z m -10.000004,-9.99999 h -10 v 10 h 10 z m 10.000004,0 H 39.626846 v 10 H 49.62685 Z m 0,-10.00002 H 39.626846 v 10 H 49.62685 Z m 10,20.00003 h -10 v 10 h 10 z m 0,-9.99999 h -10 v 10 h 10 z m 0,-10.00002 h -10 v 10 h 10 z m 0,-9.999978 h -10 v 9.999998 h 10 z m 10,39.999988 h -10 v 10 h 10 z m 0,-10 h -10 v 10 h 10 z m 0,-9.99999 h -10 v 10 h 10 z m 0,-10.00001 h -10 v 10 h 10 z m 0,-9.999988 h -10 v 9.999998 h 10 z m 0,-10 h -10 v 10 h 10 z m 10,59.999998 h -10 v 10 h 10 z m 0,-10.00003 h -10 v 10 h 10 z m 0,-10 h -10 v 10 h 10 z m 0,-9.99998 h -10 v 10 h 10 z m 0,-10.00001 h -10 v 10 h 10 z m 0,-9.999993 h -10 v 10.000003 h 10 z m 0,-10 h -10 v 10 h 10 z m 0,-10.000008 h -10 v 10 h 10 z m 10,80.000021 h -10 v 10 h 10 z m 0,-10 h -10 v 10 h 10 z m 0,-10.00003 h -10 v 10 h 10 z m 0,-10 h -10 v 10 h 10 z m 0,-9.99998 h -10 v 10 h 10 z m 0,-10 h -10 v 10 h 10 z m 0,-9.999996 h -10 v 9.999996 h 10 z m 0,-10 h -10 v 10 h 10 z m 0,-10.000007 h -10 v 10 h 10 z m 0,-10.000008 h -10 v 10 h 10 z m 10,100.000021 h -10 v 10 h 10 z m 0,-10 h -10 v 10 h 10 z m 0,-10 h -10 v 10 h 10 z m 0,-10.00003 h -10 v 10 h 10 z m 0,-10 h -10 v 10 h 10 z m 0,-9.99999 h -10 v 10 h 10 z m 0,-10 h -10 v 10 h 10 z m 0,-9.999986 h -10 v 9.999996 h 10 z m 0,-10 h -10 v 10 h 10 z m 0,-10.000007 h -10 v 10 h 10 z m 0,-10.000008 h -10 v 10 h 10 z m 0,-10 h -10 v 10 h 10 z m 10,120.000021 h -10 v 10 h 10 z m 0,-10 h -10 v 10 h 10 z m 0,-10 h -10 v 10 h 10 z m 0,-10 h -10 v 10 h 10 z m 0,-10.00003 h -10 v 10 h 10 z m 0,-10 h -10 v 10 h 10 z m 0,-9.99999 h -10 v 10 h 10 z m 0,-10 h -10 v 10 h 10 z m 0,-9.999986 h -10 v 9.999996 h 10 z m 0,-10 h -10 v 10 h 10 z m 0,-10 h -10 v 10 h 10 z m 0,-10.000007 h -10 v 10 h 10 z m 0,-10 h -10 v 10 h 10 z m 0,-10 h -10 v 10 h 10 z m 10,140.000013 h -10 v 10 h 10 z m 0,-10 h -10 v 10 h 10 z m 0,-10 h -10 v 10 h 10 z m 0,-10 h -10 v 10 h 10 z m 0,-10 h -10 v 10 h 10 z m 0,-10.00001 h -10 v 10 h 10 z m 0,-10 h -10 v 10 h 10 z m 0,-10 h -10 v 10 h 10 z m 0,-10 h -10 v 10 h 10 z m 0,-9.999996 h -10 v 9.999996 h 10 z m 0,-10 h -10 v 10 h 10 z m 0,-10 h -10 v 10 h 10 z m 0,-10 h -10 v 10 h 10 z m 0,-10 h -10 v 10 h 10 z m 0,-10 h -10 v 10 h 10 z m 0,-10 h -10 v 10 h 10 z" />
  </g>
</svg>
