<?xml version="1.0" encoding="UTF-8" standalone="no"?>
<!-- Created with Inkscape (http://www.inkscape.org/) -->

<svg
   width="110mm"
   height="110mm"
   viewBox="0 0 110 110"
   version="1.1"
   id="svg133672"
   inkscape:version="1.1 (c68e22c387, 2021-05-23)"
   sodipodi:docname="sfx-muted.svg"
   xmlns:inkscape="http://www.inkscape.org/namespaces/inkscape"
   xmlns:sodipodi="http://sodipodi.sourceforge.net/DTD/sodipodi-0.dtd"
   xmlns="http://www.w3.org/2000/svg"
   xmlns:svg="http://www.w3.org/2000/svg">
  <sodipodi:namedview
     id="namedview133674"
     pagecolor="#ffffff"
     bordercolor="#666666"
     borderopacity="1.0"
     inkscape:pageshadow="2"
     inkscape:pageopacity="0.0"
     inkscape:pagecheckerboard="0"
     inkscape:document-units="mm"
     showgrid="false"
     inkscape:zoom="0.72337261"
     inkscape:cx="87.783251"
     inkscape:cy="278.5563"
     inkscape:window-width="1920"
     inkscape:window-height="1001"
     inkscape:window-x="-9"
     inkscape:window-y="-9"
     inkscape:window-maximized="1"
     inkscape:current-layer="layer1" />
  <defs
     id="defs133669" />
  <g
     inkscape:label="Layer 1"
     inkscape:groupmode="layer"
     id="layer1"
     transform="translate(-30.724138,-150.5628)">
    <path
       id="rect134703-5-3-8-47"
       style="fill:#bea9de;stroke:#000000;stroke-width:0;stroke-linecap:square;stroke-linejoin:bevel;fill-opacity:1"
       d="m 70.724136,250.56281 h 10 v 10 h -10 z m 0,-10 h 10 v 10 h -10 z m 0,-10 h 10 v 10 h -10 z m 0,-10 h 10 v 10 h -10 z m -10,20 h 10 v 10 h -10 z m 0,-10 h 10 v 10 h -10 z m 0,-10 h 10 v 10 h -10 z m 0,-10 h 10 v 10 h -10 z m -10,0 h 10 v 10 h -10 z m -10,0 h 10 v 10 h -10 z m 30,0 h 10 v 10 h -10 z m -39.999996,0 h 10 v 10 h -10 z m 29.999996,-10 h 10 v 10 h -10 z m 10,-20 h 10 v 10 h -10 z m 0,-10 h 10 v 10 h -10 z m 70.000004,10 h -10 v 10 h 10 z m -10,30 h -10 v 10 h 10 z m 0,-20 h -10 v 10 h 10 z m 10,30 h -10 v 10 h 10 z m -50.000004,-40 h 10.000004 v 10 H 90.724136 Z m 20.000004,20 h 10 v 10 h -10 z m -10,10 h 10 v 10 h -10 z m 0,-20 h 10 v 10 h -10 z m -10.000004,30 h 10.000004 v 10 H 90.724136 Z m -20,-60 h 10 v 10 h -10 z m 0,-10 h 10 v 10 h -10 z m -20,80 h 10 v 10 h -10 z m 0,-10 h 10 v 10 h -10 z m 10,-30 h 10 v 10 h -10 z m 0,-10 h 10 v 10 h -10 z m 0,-10 h 10 v 10 h -10 z m 0,-10 h 10 v 10 h -10 z m -10,40 h 10 v 10 h -10 z m 0,-10 h 10 v 10 h -10 z m 0,-10 h 10 v 10 h -10 z m 0,-10 h 10 v 10 h -10 z m -10,30 h 10 v 10 h -10 z m 30,0 h 10 v 10 h -10 z m 0,-10 h 10 v 10 h -10 z m -39.999998,10 h 10 v 10 h -10 z m 9.999998,-10 h 10 v 10 h -10 z m -9.999998,0 h 10 v 10 h -10 z" />
  </g>
</svg>
