<?xml version="1.0" encoding="UTF-8" standalone="no"?>
<!-- Created with Inkscape (http://www.inkscape.org/) -->

<svg
   width="70mm"
   height="70.000008mm"
   viewBox="0 0 70 70.000008"
   version="1.1"
   id="svg100703"
   inkscape:version="1.1 (c68e22c387, 2021-05-23)"
   sodipodi:docname="x.svg"
   xmlns:inkscape="http://www.inkscape.org/namespaces/inkscape"
   xmlns:sodipodi="http://sodipodi.sourceforge.net/DTD/sodipodi-0.dtd"
   xmlns="http://www.w3.org/2000/svg"
   xmlns:svg="http://www.w3.org/2000/svg">
  <sodipodi:namedview
     id="namedview100705"
     pagecolor="#ffffff"
     bordercolor="#666666"
     borderopacity="1.0"
     inkscape:pageshadow="2"
     inkscape:pageopacity="0.0"
     inkscape:pagecheckerboard="0"
     inkscape:document-units="mm"
     showgrid="false"
     inkscape:zoom="0.72337262"
     inkscape:cx="273.02665"
     inkscape:cy="119.57876"
     inkscape:window-width="1920"
     inkscape:window-height="1001"
     inkscape:window-x="-9"
     inkscape:window-y="-9"
     inkscape:window-maximized="1"
     inkscape:current-layer="layer1" />
  <defs
     id="defs100700" />
  <g
     inkscape:label="Layer 1"
     inkscape:groupmode="layer"
     id="layer1"
     transform="translate(-33.03202,-117.15763)">
    <path
       id="rect4706-7-5-8-0"
       style="stroke:#000000;stroke-width:0;stroke-linecap:square;stroke-linejoin:bevel;fill:#e3e2c4;fill-opacity:1"
       d="m 63.03202,147.15763 h 10 v 10 h -10 z m -10,0 h 10 v 10 h -10 z m 30,0 h -10 v 10 h 10 z m -30,20.00001 h 10 v -10.00001 h -10 z m -9.999999,0 h 10 v -10.00001 h -10 z m 0,10 h 10 v -10 h -10 z m -10.000001,0 h 10 v -10 h -10 z m 10.000001,10 h 10 v -10 h -10 z m -10.000001,0 h 10 v -10 h -10 z m 50,-20 h -10 v -10.00001 h 10 z m 10,0 h -10 v -10.00001 h 10 z m 0,10 h -10 v -10 h 10 z m 10,0 h -10 v -10 h 10 z m -10,10 h -10 v -10 h 10 z m 10,0 h -10 v -10 h 10 z m -20,-50.00001 h -10 v 10 h 10 z m 10,0 h -10 v 10 h 10 z m 0,-10 h -10 v 10 h 10 z m 10,0 H 93.032016 v 10 h 10.000004 z m -10,-10 h -10 v 10 h 10 z m 10,0 H 93.032016 v 10 h 10.000004 z m -49.999999,20 h 10 v 10 h -10 z m -10,0 h 10 v 10 h -10 z m -10e-7,-10 h 10 v 10 h -10 z m -10,0 h 10 v 10 h -10 z m 10,-9.99999 h 10 v 10 h -10 z m -10,0 h 10 v 10 h -10 z" />
  </g>
</svg>
